<svg xmlns="http://www.w3.org/2000/svg" viewBox="0 0 1920 1080">
  <defs>
    <linearGradient id="bg" x1="0%" y1="0%" x2="100%" y2="100%">
      <stop offset="0%" stop-color="#0d0d0d" />
      <stop offset="100%" stop-color="#1a1a1a" />
    </linearGradient>
    
    <linearGradient id="fill1" x1="0%" y1="0%" x2="100%" y2="100%">
      <stop offset="0%" stop-color="#ff2d8a" />
      <stop offset="100%" stop-color="#7c3aed" />
    </linearGradient>
    
    <filter id="glow">
      <feGaussianBlur stdDeviation="6" result="blur" />
      <feMerge>
        <feMergeNode in="blur" />
        <feMergeNode in="SourceGraphic" />
      </feMerge>
    </filter>
  </defs>
  
  <rect width="100%" height="100%" fill="url(#bg)" />
  
  <g opacity="0.18" stroke="#ffffff" stroke-width="3" fill="none">
    <path d="M100 180 L250 80 L420 210 L600 120 L780 260 L980 110 L1180 240 L1400 90 L1650 220" />
    <path d="M80 760 L300 610 L480 770 L700 600 L930 760 L1160 620 L1410 770 L1680 610" />
    <path d="M150 470 L360 310 L620 470 L870 280 L1120 460 L1390 290 L1700 450" />
  </g>
  
  <g fill="url(#fill1)" stroke="#ffffff" stroke-width="8" filter="url(#glow)" opacity="0.9">
    <path d="M160 420 L290 240 L450 320 L620 180 L780 390 L980 240 L1180 360 L1380 180 L1660 330 L1740 520 L1560 640 L1280 600 L1030 690 L760 620 L510 680 L250 590 Z" />
  </g>
  
  <g stroke="#5eead4" stroke-width="8" opacity="0.35">
    <line x1="320" y1="180" x2="320" y2="720" />
    <line x1="820" y1="120" x2="820" y2="760" />
    <line x1="1320" y1="180" x2="1320" y2="760" />
  </g>
  
  <g opacity="0.08" fill="#ffffff">
    <circle cx="200" cy="120" r="3" />
    <circle cx="900" cy="220" r="2" />
    <circle cx="1600" cy="140" r="4" />
    <circle cx="600" cy="940" r="3" />
    <circle cx="1400" cy="920" r="2" />
  </g>
</svg>